<mxfile host="app.diagrams.net" modified="2024-06-25T15:58:56.522Z" agent="Mozilla/5.0 (Windows NT 10.0; Win64; x64) AppleWebKit/537.36 (KHTML, like Gecko) Chrome/126.0.0.0 Safari/537.36" etag="8DPqxF3-lxfLtpKt1YeZ" version="24.6.2" type="google">
  <diagram name="Página-1" id="LsmGkmER8wEdNiZBodtZ">
    <mxGraphModel grid="0" page="1" gridSize="10" guides="1" tooltips="1" connect="1" arrows="1" fold="1" pageScale="1" pageWidth="1100" pageHeight="1200" math="0" shadow="0">
      <root>
        <mxCell id="0" />
        <mxCell id="1" parent="0" />
        <mxCell id="AjBFbFOjEj0jWaxsaU4j-5" style="edgeStyle=elbowEdgeStyle;rounded=0;orthogonalLoop=1;jettySize=auto;html=1;elbow=horizontal;curved=0;" edge="1" parent="1">
          <mxGeometry relative="1" as="geometry">
            <mxPoint x="3144.5000000000005" y="171.9999999999999" as="sourcePoint" />
            <mxPoint x="2674.0714285714284" y="171.9999999999999" as="targetPoint" />
            <Array as="points">
              <mxPoint x="2903" y="172" />
            </Array>
          </mxGeometry>
        </mxCell>
        <mxCell id="AjBFbFOjEj0jWaxsaU4j-7" value="getDomicilio()" style="edgeLabel;html=1;align=center;verticalAlign=middle;resizable=0;points=[];" connectable="0" vertex="1" parent="AjBFbFOjEj0jWaxsaU4j-5">
          <mxGeometry x="-0.0677" y="-1" relative="1" as="geometry">
            <mxPoint as="offset" />
          </mxGeometry>
        </mxCell>
        <mxCell id="uaeYe4_tYvJVXIgmSCOc-45" value="Donante" style="shape=umlLifeline;perimeter=lifelinePerimeter;whiteSpace=wrap;html=1;container=0;dropTarget=0;collapsible=0;recursiveResize=0;outlineConnect=0;portConstraint=eastwest;newEdgeStyle={&quot;edgeStyle&quot;:&quot;elbowEdgeStyle&quot;,&quot;elbow&quot;:&quot;vertical&quot;,&quot;curved&quot;:0,&quot;rounded&quot;:0};" vertex="1" parent="1">
          <mxGeometry x="3090" y="96.5" width="110" height="804.5" as="geometry" />
        </mxCell>
        <mxCell id="dMAKtlA2dXLR2GeC89b2-24" value="" style="html=1;points=[];perimeter=orthogonalPerimeter;outlineConnect=0;targetShapes=umlLifeline;portConstraint=eastwest;newEdgeStyle={&quot;edgeStyle&quot;:&quot;elbowEdgeStyle&quot;,&quot;elbow&quot;:&quot;vertical&quot;,&quot;curved&quot;:0,&quot;rounded&quot;:0};" vertex="1" parent="uaeYe4_tYvJVXIgmSCOc-45">
          <mxGeometry x="50" y="51" width="10" height="720" as="geometry" />
        </mxCell>
        <mxCell id="dMAKtlA2dXLR2GeC89b2-22" value="Informe de Visita" style="shape=umlLifeline;perimeter=lifelinePerimeter;whiteSpace=wrap;html=1;container=0;dropTarget=0;collapsible=0;recursiveResize=0;outlineConnect=0;portConstraint=eastwest;newEdgeStyle={&quot;edgeStyle&quot;:&quot;elbowEdgeStyle&quot;,&quot;elbow&quot;:&quot;vertical&quot;,&quot;curved&quot;:0,&quot;rounded&quot;:0};" vertex="1" parent="1">
          <mxGeometry x="2926" y="96.5" width="150" height="800.5" as="geometry" />
        </mxCell>
        <mxCell id="uaeYe4_tYvJVXIgmSCOc-1" value="Recoleccion de Donaciones" style="shape=umlFrame;whiteSpace=wrap;html=1;pointerEvents=0;width=80;height=50;strokeWidth=3;" vertex="1" parent="1">
          <mxGeometry x="2310" y="77" width="1086" height="822" as="geometry" />
        </mxCell>
        <mxCell id="uaeYe4_tYvJVXIgmSCOc-9" value="alt" style="shape=umlFrame;whiteSpace=wrap;html=1;pointerEvents=0;width=60;height=30;strokeWidth=2;" vertex="1" parent="1">
          <mxGeometry x="2350" y="282" width="1009" height="600" as="geometry" />
        </mxCell>
        <mxCell id="uaeYe4_tYvJVXIgmSCOc-26" value="" style="endArrow=none;dashed=1;html=1;dashPattern=1 3;strokeWidth=2;rounded=0;entryX=-0.001;entryY=0.242;entryDx=0;entryDy=0;entryPerimeter=0;exitX=0.999;exitY=0.244;exitDx=0;exitDy=0;exitPerimeter=0;" edge="1" parent="1">
          <mxGeometry width="50" height="50" relative="1" as="geometry">
            <mxPoint x="3357.991" y="401.0160000000001" as="sourcePoint" />
            <mxPoint x="2348.991" y="400.1880000000001" as="targetPoint" />
            <Array as="points" />
          </mxGeometry>
        </mxCell>
        <mxCell id="uaeYe4_tYvJVXIgmSCOc-47" value="Solicitud" style="shape=umlLifeline;perimeter=lifelinePerimeter;whiteSpace=wrap;html=1;container=0;dropTarget=0;collapsible=0;recursiveResize=0;outlineConnect=0;portConstraint=eastwest;newEdgeStyle={&quot;edgeStyle&quot;:&quot;elbowEdgeStyle&quot;,&quot;elbow&quot;:&quot;vertical&quot;,&quot;curved&quot;:0,&quot;rounded&quot;:0};" vertex="1" parent="1">
          <mxGeometry x="2760" y="96.5" width="150" height="800.5" as="geometry" />
        </mxCell>
        <mxCell id="AjBFbFOjEj0jWaxsaU4j-13" value="" style="html=1;points=[];perimeter=orthogonalPerimeter;outlineConnect=0;targetShapes=umlLifeline;portConstraint=eastwest;newEdgeStyle={&quot;edgeStyle&quot;:&quot;elbowEdgeStyle&quot;,&quot;elbow&quot;:&quot;vertical&quot;,&quot;curved&quot;:0,&quot;rounded&quot;:0};" vertex="1" parent="uaeYe4_tYvJVXIgmSCOc-47">
          <mxGeometry x="70" y="264.5" width="10" height="16.5" as="geometry" />
        </mxCell>
        <mxCell id="EOZu0p530FmktWK0IdCz-17" value="" style="endArrow=none;dashed=1;html=1;dashPattern=1 3;strokeWidth=2;rounded=0;exitX=1.005;exitY=0.466;exitDx=0;exitDy=0;exitPerimeter=0;entryX=-0.001;entryY=0.466;entryDx=0;entryDy=0;entryPerimeter=0;" edge="1" parent="1">
          <mxGeometry width="50" height="50" relative="1" as="geometry">
            <mxPoint x="3360.525" y="479.9999999999999" as="sourcePoint" />
            <mxPoint x="2345.471" y="479.9999999999999" as="targetPoint" />
          </mxGeometry>
        </mxCell>
        <mxCell id="EOZu0p530FmktWK0IdCz-21" value="&lt;span style=&quot;color: rgb(0, 0, 0); font-family: Helvetica; font-size: 12px; font-style: normal; font-variant-ligatures: normal; font-variant-caps: normal; font-weight: 400; letter-spacing: normal; orphans: 2; text-align: center; text-indent: 0px; text-transform: none; widows: 2; word-spacing: 0px; -webkit-text-stroke-width: 0px; white-space: nowrap; background-color: rgb(251, 251, 251); text-decoration-thickness: initial; text-decoration-style: initial; text-decoration-color: initial; display: inline !important; float: none;&quot;&gt;No encuentra la direccion&lt;/span&gt;" style="text;whiteSpace=wrap;html=1;" vertex="1" parent="1">
          <mxGeometry x="2357" y="318" width="110" height="40" as="geometry" />
        </mxCell>
        <mxCell id="EOZu0p530FmktWK0IdCz-22" value="&lt;div style=&quot;text-align: center;&quot;&gt;&lt;span style=&quot;background-color: initial; text-wrap: nowrap;&quot;&gt;Recoleccion Exitosa&lt;/span&gt;&lt;/div&gt;" style="text;whiteSpace=wrap;html=1;" vertex="1" parent="1">
          <mxGeometry x="2371" y="487.00000000000006" width="130" height="40" as="geometry" />
        </mxCell>
        <mxCell id="EOZu0p530FmktWK0IdCz-23" value="Bidon" style="shape=umlLifeline;perimeter=lifelinePerimeter;whiteSpace=wrap;html=1;container=0;dropTarget=0;collapsible=0;recursiveResize=0;outlineConnect=0;portConstraint=eastwest;newEdgeStyle={&quot;edgeStyle&quot;:&quot;elbowEdgeStyle&quot;,&quot;elbow&quot;:&quot;vertical&quot;,&quot;curved&quot;:0,&quot;rounded&quot;:0};" vertex="1" parent="1">
          <mxGeometry x="3220" y="97" width="150" height="769.5" as="geometry" />
        </mxCell>
        <mxCell id="AjBFbFOjEj0jWaxsaU4j-29" value="" style="html=1;points=[];perimeter=orthogonalPerimeter;outlineConnect=0;targetShapes=umlLifeline;portConstraint=eastwest;newEdgeStyle={&quot;edgeStyle&quot;:&quot;elbowEdgeStyle&quot;,&quot;elbow&quot;:&quot;vertical&quot;,&quot;curved&quot;:0,&quot;rounded&quot;:0};" vertex="1" parent="EOZu0p530FmktWK0IdCz-23">
          <mxGeometry x="72" y="494" width="10" height="246" as="geometry" />
        </mxCell>
        <mxCell id="dMAKtlA2dXLR2GeC89b2-3" value="Domicilio" style="shape=umlLifeline;perimeter=lifelinePerimeter;whiteSpace=wrap;html=1;container=0;dropTarget=0;collapsible=0;recursiveResize=0;outlineConnect=0;portConstraint=eastwest;newEdgeStyle={&quot;edgeStyle&quot;:&quot;elbowEdgeStyle&quot;,&quot;elbow&quot;:&quot;vertical&quot;,&quot;curved&quot;:0,&quot;rounded&quot;:0};" vertex="1" parent="1">
          <mxGeometry x="2600" y="96.5" width="150" height="801.5" as="geometry" />
        </mxCell>
        <mxCell id="dMAKtlA2dXLR2GeC89b2-4" value="" style="html=1;points=[];perimeter=orthogonalPerimeter;outlineConnect=0;targetShapes=umlLifeline;portConstraint=eastwest;newEdgeStyle={&quot;edgeStyle&quot;:&quot;elbowEdgeStyle&quot;,&quot;elbow&quot;:&quot;vertical&quot;,&quot;curved&quot;:0,&quot;rounded&quot;:0};" vertex="1" parent="dMAKtlA2dXLR2GeC89b2-3">
          <mxGeometry x="70" y="75.5" width="10" height="16.5" as="geometry" />
        </mxCell>
        <mxCell id="dMAKtlA2dXLR2GeC89b2-5" value="" style="endArrow=classic;html=1;rounded=0;" edge="1" parent="1">
          <mxGeometry width="50" height="50" relative="1" as="geometry">
            <mxPoint x="2511.181818181818" y="326" as="sourcePoint" />
            <mxPoint x="3000.5" y="326" as="targetPoint" />
          </mxGeometry>
        </mxCell>
        <mxCell id="AjBFbFOjEj0jWaxsaU4j-12" value="Situación a&amp;nbsp;&lt;span style=&quot;font-size: 12px; text-align: left; text-wrap: wrap; background-color: rgb(251, 251, 251);&quot;&gt;DOMICILIO_NO_ENCONTRADO&lt;/span&gt;" style="edgeLabel;html=1;align=center;verticalAlign=middle;resizable=0;points=[];" connectable="0" vertex="1" parent="dMAKtlA2dXLR2GeC89b2-5">
          <mxGeometry x="0.0088" y="3" relative="1" as="geometry">
            <mxPoint y="-1" as="offset" />
          </mxGeometry>
        </mxCell>
        <mxCell id="dMAKtlA2dXLR2GeC89b2-7" value="" style="endArrow=none;html=1;rounded=0;endFill=0;startArrow=block;startFill=1;" edge="1" parent="1">
          <mxGeometry width="50" height="50" relative="1" as="geometry">
            <mxPoint x="2998.5" y="511.09" as="sourcePoint" />
            <mxPoint x="2509.181818181818" y="511.09" as="targetPoint" />
          </mxGeometry>
        </mxCell>
        <mxCell id="AjBFbFOjEj0jWaxsaU4j-23" value="Situación a&amp;nbsp;&lt;span style=&quot;text-wrap: wrap; font-size: 12px; text-align: left; background-color: rgb(251, 251, 251);&quot;&gt;RECOLECCION&lt;/span&gt;" style="edgeLabel;html=1;align=center;verticalAlign=middle;resizable=0;points=[];" connectable="0" vertex="1" parent="dMAKtlA2dXLR2GeC89b2-7">
          <mxGeometry x="0.1522" y="-3" relative="1" as="geometry">
            <mxPoint as="offset" />
          </mxGeometry>
        </mxCell>
        <mxCell id="uaeYe4_tYvJVXIgmSCOc-41" value="Recolector" style="shape=umlLifeline;perimeter=lifelinePerimeter;whiteSpace=wrap;html=1;container=0;dropTarget=0;collapsible=0;recursiveResize=0;outlineConnect=0;portConstraint=eastwest;newEdgeStyle={&quot;edgeStyle&quot;:&quot;elbowEdgeStyle&quot;,&quot;elbow&quot;:&quot;vertical&quot;,&quot;curved&quot;:0,&quot;rounded&quot;:0};size=40;" vertex="1" parent="1">
          <mxGeometry x="2450" y="96.5" width="125" height="801.5" as="geometry" />
        </mxCell>
        <mxCell id="AjBFbFOjEj0jWaxsaU4j-1" style="edgeStyle=elbowEdgeStyle;rounded=0;orthogonalLoop=1;jettySize=auto;html=1;elbow=vertical;curved=0;" edge="1" parent="1">
          <mxGeometry relative="1" as="geometry">
            <mxPoint x="2517.5" y="150" as="sourcePoint" />
            <mxPoint x="3144.5" y="150" as="targetPoint" />
            <Array as="points">
              <mxPoint x="2812" y="150" />
            </Array>
          </mxGeometry>
        </mxCell>
        <mxCell id="AjBFbFOjEj0jWaxsaU4j-3" value="&lt;span style=&quot;font-size: 12px; text-align: left; text-wrap: wrap; background-color: rgb(251, 251, 251);&quot;&gt;obtenerDomicilioDonante()&lt;/span&gt;" style="edgeLabel;html=1;align=center;verticalAlign=middle;resizable=0;points=[];" connectable="0" vertex="1" parent="AjBFbFOjEj0jWaxsaU4j-1">
          <mxGeometry x="0.1959" y="2" relative="1" as="geometry">
            <mxPoint as="offset" />
          </mxGeometry>
        </mxCell>
        <mxCell id="AjBFbFOjEj0jWaxsaU4j-10" style="edgeStyle=elbowEdgeStyle;rounded=0;orthogonalLoop=1;jettySize=auto;html=1;elbow=vertical;curved=0;" edge="1" parent="1">
          <mxGeometry relative="1" as="geometry">
            <mxPoint x="2517.5" y="252" as="sourcePoint" />
            <mxPoint x="3000.5" y="252" as="targetPoint" />
            <Array as="points">
              <mxPoint x="2756" y="252" />
            </Array>
          </mxGeometry>
        </mxCell>
        <mxCell id="AjBFbFOjEj0jWaxsaU4j-11" value="&lt;span style=&quot;font-size: 12px; text-align: left; text-wrap: wrap; background-color: rgb(251, 251, 251);&quot;&gt;crearInformeDeVisita()&lt;/span&gt;" style="edgeLabel;html=1;align=center;verticalAlign=middle;resizable=0;points=[];" connectable="0" vertex="1" parent="AjBFbFOjEj0jWaxsaU4j-10">
          <mxGeometry x="-0.1201" relative="1" as="geometry">
            <mxPoint x="31" y="-14" as="offset" />
          </mxGeometry>
        </mxCell>
        <mxCell id="AjBFbFOjEj0jWaxsaU4j-14" style="edgeStyle=elbowEdgeStyle;rounded=0;orthogonalLoop=1;jettySize=auto;html=1;elbow=vertical;curved=0;" edge="1" parent="1">
          <mxGeometry relative="1" as="geometry">
            <mxPoint x="2517.5" y="362" as="sourcePoint" />
            <mxPoint x="2834.5000000000005" y="362" as="targetPoint" />
            <Array as="points">
              <mxPoint x="2645" y="362" />
            </Array>
          </mxGeometry>
        </mxCell>
        <mxCell id="AjBFbFOjEj0jWaxsaU4j-15" value="nuevaSolicitud()" style="edgeLabel;html=1;align=center;verticalAlign=middle;resizable=0;points=[];" connectable="0" vertex="1" parent="AjBFbFOjEj0jWaxsaU4j-14">
          <mxGeometry x="0.0997" y="-3" relative="1" as="geometry">
            <mxPoint x="31" y="-12" as="offset" />
          </mxGeometry>
        </mxCell>
        <mxCell id="AjBFbFOjEj0jWaxsaU4j-39" style="edgeStyle=elbowEdgeStyle;rounded=0;orthogonalLoop=1;jettySize=auto;html=1;elbow=vertical;curved=0;" edge="1" parent="1" source="uaeYe4_tYvJVXIgmSCOc-42" target="dMAKtlA2dXLR2GeC89b2-22">
          <mxGeometry relative="1" as="geometry">
            <Array as="points">
              <mxPoint x="2717" y="652" />
            </Array>
          </mxGeometry>
        </mxCell>
        <mxCell id="AjBFbFOjEj0jWaxsaU4j-40" value="retirar(Bidon)" style="edgeLabel;html=1;align=center;verticalAlign=middle;resizable=0;points=[];" connectable="0" vertex="1" parent="AjBFbFOjEj0jWaxsaU4j-39">
          <mxGeometry x="-0.0356" y="-3" relative="1" as="geometry">
            <mxPoint as="offset" />
          </mxGeometry>
        </mxCell>
        <mxCell id="uaeYe4_tYvJVXIgmSCOc-42" value="" style="html=1;points=[];perimeter=orthogonalPerimeter;outlineConnect=0;targetShapes=umlLifeline;portConstraint=eastwest;newEdgeStyle={&quot;edgeStyle&quot;:&quot;elbowEdgeStyle&quot;,&quot;elbow&quot;:&quot;vertical&quot;,&quot;curved&quot;:0,&quot;rounded&quot;:0};" vertex="1" parent="1">
          <mxGeometry x="2507.5" y="143" width="10" height="758" as="geometry" />
        </mxCell>
        <mxCell id="dMAKtlA2dXLR2GeC89b2-18" value="La donante no atiende&amp;nbsp;" style="text;html=1;align=center;verticalAlign=middle;resizable=0;points=[];autosize=1;strokeColor=none;fillColor=none;" vertex="1" parent="1">
          <mxGeometry x="2357" y="408" width="150" height="30" as="geometry" />
        </mxCell>
        <mxCell id="AjBFbFOjEj0jWaxsaU4j-6" style="edgeStyle=elbowEdgeStyle;rounded=0;orthogonalLoop=1;jettySize=auto;html=1;elbow=vertical;curved=0;dashed=1;" edge="1" parent="1">
          <mxGeometry relative="1" as="geometry">
            <mxPoint x="2680" y="185" as="sourcePoint" />
            <mxPoint x="3144.5" y="185" as="targetPoint" />
          </mxGeometry>
        </mxCell>
        <mxCell id="AjBFbFOjEj0jWaxsaU4j-42" style="edgeStyle=elbowEdgeStyle;rounded=0;orthogonalLoop=1;jettySize=auto;html=1;elbow=horizontal;curved=0;" edge="1" parent="1" source="AjBFbFOjEj0jWaxsaU4j-8" target="EOZu0p530FmktWK0IdCz-23">
          <mxGeometry relative="1" as="geometry">
            <Array as="points">
              <mxPoint x="3060" y="660" />
            </Array>
          </mxGeometry>
        </mxCell>
        <mxCell id="AjBFbFOjEj0jWaxsaU4j-43" value="Asociar a Entregados" style="edgeLabel;html=1;align=center;verticalAlign=middle;resizable=0;points=[];" connectable="0" vertex="1" parent="AjBFbFOjEj0jWaxsaU4j-42">
          <mxGeometry x="0.151" relative="1" as="geometry">
            <mxPoint x="41" y="-8" as="offset" />
          </mxGeometry>
        </mxCell>
        <mxCell id="AjBFbFOjEj0jWaxsaU4j-48" style="edgeStyle=elbowEdgeStyle;rounded=0;orthogonalLoop=1;jettySize=auto;html=1;elbow=vertical;curved=0;dashed=1;" edge="1" parent="1" source="AjBFbFOjEj0jWaxsaU4j-8" target="uaeYe4_tYvJVXIgmSCOc-41">
          <mxGeometry relative="1" as="geometry">
            <Array as="points">
              <mxPoint x="2736" y="869" />
            </Array>
          </mxGeometry>
        </mxCell>
        <mxCell id="AjBFbFOjEj0jWaxsaU4j-8" value="" style="html=1;points=[];perimeter=orthogonalPerimeter;outlineConnect=0;targetShapes=umlLifeline;portConstraint=eastwest;newEdgeStyle={&quot;edgeStyle&quot;:&quot;elbowEdgeStyle&quot;,&quot;elbow&quot;:&quot;vertical&quot;,&quot;curved&quot;:0,&quot;rounded&quot;:0};" vertex="1" parent="1">
          <mxGeometry x="2996" y="251" width="10" height="622" as="geometry" />
        </mxCell>
        <mxCell id="AjBFbFOjEj0jWaxsaU4j-16" style="edgeStyle=elbowEdgeStyle;rounded=0;orthogonalLoop=1;jettySize=auto;html=1;elbow=vertical;curved=0;" edge="1" parent="1">
          <mxGeometry relative="1" as="geometry">
            <mxPoint x="2840" y="363" as="sourcePoint" />
            <mxPoint x="3000.5" y="363" as="targetPoint" />
          </mxGeometry>
        </mxCell>
        <mxCell id="AjBFbFOjEj0jWaxsaU4j-17" value="relacionarCon()" style="edgeLabel;html=1;align=center;verticalAlign=middle;resizable=0;points=[];" connectable="0" vertex="1" parent="AjBFbFOjEj0jWaxsaU4j-16">
          <mxGeometry x="-0.1676" y="3" relative="1" as="geometry">
            <mxPoint as="offset" />
          </mxGeometry>
        </mxCell>
        <mxCell id="AjBFbFOjEj0jWaxsaU4j-18" style="edgeStyle=elbowEdgeStyle;rounded=0;orthogonalLoop=1;jettySize=auto;html=1;elbow=vertical;curved=0;dashed=1;" edge="1" parent="1">
          <mxGeometry relative="1" as="geometry">
            <mxPoint x="3140" y="205" as="sourcePoint" />
            <mxPoint x="2511.5714285714284" y="205" as="targetPoint" />
            <Array as="points">
              <mxPoint x="2858" y="205" />
            </Array>
          </mxGeometry>
        </mxCell>
        <mxCell id="AjBFbFOjEj0jWaxsaU4j-20" value="" style="endArrow=classic;html=1;rounded=0;" edge="1" parent="1">
          <mxGeometry width="50" height="50" relative="1" as="geometry">
            <mxPoint x="2507.501818181818" y="454" as="sourcePoint" />
            <mxPoint x="2996.82" y="454" as="targetPoint" />
          </mxGeometry>
        </mxCell>
        <mxCell id="AjBFbFOjEj0jWaxsaU4j-21" value="Situación a&amp;nbsp;&lt;span style=&quot;font-size: 12px; text-align: left; text-wrap: wrap; background-color: rgb(251, 251, 251);&quot;&gt;DONANTE_AUSENTE&lt;/span&gt;" style="edgeLabel;html=1;align=center;verticalAlign=middle;resizable=0;points=[];" connectable="0" vertex="1" parent="AjBFbFOjEj0jWaxsaU4j-20">
          <mxGeometry x="0.0088" y="3" relative="1" as="geometry">
            <mxPoint y="-1" as="offset" />
          </mxGeometry>
        </mxCell>
        <mxCell id="AjBFbFOjEj0jWaxsaU4j-24" style="edgeStyle=elbowEdgeStyle;rounded=0;orthogonalLoop=1;jettySize=auto;html=1;elbow=vertical;curved=0;" edge="1" parent="1">
          <mxGeometry relative="1" as="geometry">
            <mxPoint x="2840" y="377" as="sourcePoint" />
            <mxPoint x="3144.5" y="377" as="targetPoint" />
          </mxGeometry>
        </mxCell>
        <mxCell id="AjBFbFOjEj0jWaxsaU4j-25" value="asociarA()" style="edgeLabel;html=1;align=center;verticalAlign=middle;resizable=0;points=[];" connectable="0" vertex="1" parent="AjBFbFOjEj0jWaxsaU4j-24">
          <mxGeometry x="-0.1676" y="3" relative="1" as="geometry">
            <mxPoint as="offset" />
          </mxGeometry>
        </mxCell>
        <mxCell id="AjBFbFOjEj0jWaxsaU4j-26" value="loop" style="shape=umlFrame;whiteSpace=wrap;html=1;pointerEvents=0;width=60;height=30;strokeWidth=2;" vertex="1" parent="1">
          <mxGeometry x="2392" y="527" width="943" height="310" as="geometry" />
        </mxCell>
        <mxCell id="AjBFbFOjEj0jWaxsaU4j-27" value="alt" style="shape=umlFrame;whiteSpace=wrap;html=1;pointerEvents=0;width=60;height=30;strokeWidth=2;" vertex="1" parent="1">
          <mxGeometry x="2429" y="623" width="896" height="189" as="geometry" />
        </mxCell>
        <mxCell id="AjBFbFOjEj0jWaxsaU4j-28" value="" style="endArrow=none;dashed=1;html=1;dashPattern=1 3;strokeWidth=2;rounded=0;entryX=-0.001;entryY=0.466;entryDx=0;entryDy=0;entryPerimeter=0;" edge="1" parent="1">
          <mxGeometry width="50" height="50" relative="1" as="geometry">
            <mxPoint x="3325" y="702" as="sourcePoint" />
            <mxPoint x="2431.001" y="701.9999999999999" as="targetPoint" />
          </mxGeometry>
        </mxCell>
        <mxCell id="AjBFbFOjEj0jWaxsaU4j-32" value="&lt;div style=&quot;text-align: center;&quot;&gt;&lt;span style=&quot;background-color: initial; text-wrap: nowrap;&quot;&gt;Por cada Bidón&lt;/span&gt;&lt;/div&gt;" style="text;whiteSpace=wrap;html=1;" vertex="1" parent="1">
          <mxGeometry x="2402" y="562" width="86" height="40" as="geometry" />
        </mxCell>
        <mxCell id="AjBFbFOjEj0jWaxsaU4j-33" value="&lt;div style=&quot;text-align: center;&quot;&gt;&lt;span style=&quot;background-color: initial; text-wrap: nowrap;&quot;&gt;Retira&lt;/span&gt;&lt;/div&gt;" style="text;whiteSpace=wrap;html=1;" vertex="1" parent="1">
          <mxGeometry x="2438" y="652" width="53" height="40" as="geometry" />
        </mxCell>
        <mxCell id="AjBFbFOjEj0jWaxsaU4j-34" value="&lt;div style=&quot;text-align: center;&quot;&gt;&lt;span style=&quot;background-color: initial; text-wrap: nowrap;&quot;&gt;Entrega&lt;/span&gt;&lt;/div&gt;" style="text;whiteSpace=wrap;html=1;" vertex="1" parent="1">
          <mxGeometry x="2435" y="728" width="53" height="40" as="geometry" />
        </mxCell>
        <mxCell id="AjBFbFOjEj0jWaxsaU4j-44" style="edgeStyle=elbowEdgeStyle;rounded=0;orthogonalLoop=1;jettySize=auto;html=1;elbow=vertical;curved=0;" edge="1" parent="1">
          <mxGeometry relative="1" as="geometry">
            <mxPoint x="2512" y="743.41" as="sourcePoint" />
            <mxPoint x="2995" y="743.41" as="targetPoint" />
            <Array as="points">
              <mxPoint x="2711" y="743.41" />
            </Array>
          </mxGeometry>
        </mxCell>
        <mxCell id="AjBFbFOjEj0jWaxsaU4j-45" value="entregar(Bidon)" style="edgeLabel;html=1;align=center;verticalAlign=middle;resizable=0;points=[];" connectable="0" vertex="1" parent="AjBFbFOjEj0jWaxsaU4j-44">
          <mxGeometry x="-0.0356" y="-3" relative="1" as="geometry">
            <mxPoint as="offset" />
          </mxGeometry>
        </mxCell>
        <mxCell id="AjBFbFOjEj0jWaxsaU4j-46" style="edgeStyle=elbowEdgeStyle;rounded=0;orthogonalLoop=1;jettySize=auto;html=1;elbow=horizontal;curved=0;" edge="1" parent="1" target="EOZu0p530FmktWK0IdCz-23">
          <mxGeometry relative="1" as="geometry">
            <mxPoint x="3000" y="751.41" as="sourcePoint" />
            <mxPoint x="3139" y="751.41" as="targetPoint" />
            <Array as="points">
              <mxPoint x="3054" y="751.41" />
            </Array>
          </mxGeometry>
        </mxCell>
        <mxCell id="AjBFbFOjEj0jWaxsaU4j-47" value="Asociar a Retirados" style="edgeLabel;html=1;align=center;verticalAlign=middle;resizable=0;points=[];" connectable="0" vertex="1" parent="AjBFbFOjEj0jWaxsaU4j-46">
          <mxGeometry x="0.151" relative="1" as="geometry">
            <mxPoint x="43" y="-12" as="offset" />
          </mxGeometry>
        </mxCell>
        <mxCell id="AjBFbFOjEj0jWaxsaU4j-49" style="edgeStyle=elbowEdgeStyle;rounded=0;orthogonalLoop=1;jettySize=auto;html=1;elbow=vertical;curved=0;" edge="1" parent="1">
          <mxGeometry relative="1" as="geometry">
            <mxPoint x="3006" y="264" as="sourcePoint" />
            <mxPoint x="3147" y="264" as="targetPoint" />
          </mxGeometry>
        </mxCell>
        <mxCell id="AjBFbFOjEj0jWaxsaU4j-50" value="relacionarCon()" style="edgeLabel;html=1;align=center;verticalAlign=middle;resizable=0;points=[];" connectable="0" vertex="1" parent="AjBFbFOjEj0jWaxsaU4j-49">
          <mxGeometry x="-0.1676" y="3" relative="1" as="geometry">
            <mxPoint as="offset" />
          </mxGeometry>
        </mxCell>
        <mxCell id="AjBFbFOjEj0jWaxsaU4j-35" style="edgeStyle=elbowEdgeStyle;rounded=0;orthogonalLoop=1;jettySize=auto;html=1;elbow=vertical;curved=0;" edge="1" parent="1" source="uaeYe4_tYvJVXIgmSCOc-42" target="EOZu0p530FmktWK0IdCz-23">
          <mxGeometry relative="1" as="geometry">
            <Array as="points">
              <mxPoint x="2869" y="590" />
            </Array>
          </mxGeometry>
        </mxCell>
        <mxCell id="AjBFbFOjEj0jWaxsaU4j-38" value="escanearQR()" style="edgeLabel;html=1;align=center;verticalAlign=middle;resizable=0;points=[];" connectable="0" vertex="1" parent="AjBFbFOjEj0jWaxsaU4j-35">
          <mxGeometry x="0.0307" y="2" relative="1" as="geometry">
            <mxPoint as="offset" />
          </mxGeometry>
        </mxCell>
        <mxCell id="AjBFbFOjEj0jWaxsaU4j-37" style="edgeStyle=elbowEdgeStyle;rounded=0;orthogonalLoop=1;jettySize=auto;html=1;elbow=vertical;curved=0;dashed=1;" edge="1" parent="1" source="AjBFbFOjEj0jWaxsaU4j-29" target="uaeYe4_tYvJVXIgmSCOc-42">
          <mxGeometry relative="1" as="geometry">
            <Array as="points">
              <mxPoint x="2915" y="602" />
            </Array>
          </mxGeometry>
        </mxCell>
      </root>
    </mxGraphModel>
  </diagram>
</mxfile>
